<svg width="161" height="208" viewBox="0 0 161 208" fill="none" xmlns="http://www.w3.org/2000/svg">
<g clip-path="url(#clip0_11_36)">
<path d="M87.9938 203.439C87.9938 202.21 88.9399 199.897 89.7079 199.25C90.2361 198.804 90.2463 198.671 89.8557 197.305C89.4408 195.855 85.4288 187.81 85.1208 187.81C85.0328 187.81 84.0931 188.23 83.0321 188.742C80.6522 189.891 78.6741 189.952 76.8183 188.933C75.5789 188.252 74.0694 186.583 73.41 185.163C73.1678 184.642 72.8663 184.658 69.9402 185.347C65.0395 186.5 60.5338 187.771 59.6317 188.254C59.1846 188.494 58.4182 189.194 57.9282 189.809C56.806 191.219 55.1697 191.667 54.131 190.847C52.9614 189.924 52.7975 187.869 53.7663 186.274C54.3444 185.322 56.6084 185.082 57.6032 185.867C58.0984 186.258 58.7173 186.415 59.33 186.307C65.6249 184.156 67.8683 183.879 72.1457 182.514C72.6767 182.514 72.7467 182.294 72.7467 180.624C72.7467 178.468 73.7514 175.787 75.0443 174.494C78.4394 172.207 81.0696 171.839 84.6806 172.907L87.3082 168.795C90.5002 163.798 92.016 160.882 91.5239 160.685C80.4571 154.639 88.0795 137.16 95.2391 135.953C96.0886 135.433 97.0162 135.197 98.2132 135.197C100.18 135.197 100.191 135.181 100.266 132.372C100.353 129.159 101.648 114.516 102.088 111.787C102.547 108.941 102.745 109.103 99.0627 109.321C96.2039 109.612 94.9986 109.12 92.6833 107.92L91.4299 109.288C90.7404 110.041 89.6642 111.173 89.0381 111.804C87.2007 113.656 86.7593 114.783 87.162 116.596C87.6495 118.791 87.3278 119.833 85.8393 120.884C83.6566 122.424 80.7731 121.976 79.9084 119.962C79.2256 118.372 79.3752 116.741 80.2968 115.73C81.697 114.194 82.656 113.658 84.0006 113.658C84.7185 113.658 85.3499 113.52 85.4038 113.351C85.4575 113.182 86.7879 111.745 88.3603 110.157C89.9326 108.569 91.2116 107.158 91.2024 107.021C91.1939 106.884 90.5457 106.185 89.7637 105.468C88.9815 104.751 87.7059 103.052 86.9291 101.693C86.1523 100.334 85.2617 99.141 84.9504 99.0429C84.639 98.9449 83.6461 99.1076 82.7437 99.4047C81.8415 99.7017 78.6088 100.71 75.56 101.645L70.0167 103.344L69.9721 106.647C69.9046 111.66 68.6871 114.474 65.2697 117.517C58.5882 123.466 50.6113 125.015 44.6772 121.516L43.1222 120.599L42.1889 121.631C41.6757 122.198 40.7214 123.371 40.068 124.238C39.4149 125.105 37.6442 127.409 36.1333 129.358C33.4527 132.816 26.9447 142.019 26.7722 142.595C26.7248 142.754 27.6284 143.893 28.7805 145.126C31.3088 147.832 31.9034 149.141 32.3277 152.936C32.7031 156.297 32.4446 158.015 31.0219 161.612C29.9839 164.236 26.8869 167.86 24.4286 169.326C20.0299 171.95 11.4458 169.947 7.04125 165.269C6.18123 164.355 5.38823 163.037 4.84219 161.613C4.05563 159.561 3.98805 159.064 3.98805 155.324C3.98805 151.422 4.02562 151.177 4.94971 149.046C6.19356 146.178 7.55193 144.395 9.96617 142.462C14.8893 138.521 19.3677 137.951 23.4894 140.741C25.2714 141.947 25.2532 141.958 28.1188 137.987C33.4858 130.548 35.1709 128.237 36.5662 126.399C39.3599 122.72 41.6661 119.512 41.654 119.321C41.6474 119.217 40.8751 118.416 39.9378 117.542C36.8096 114.625 34.1989 109.688 33.6705 105.688C33.3258 103.079 33.3095 103.044 32.2894 102.734C31.7215 102.561 30.0694 102.232 28.618 102.003C25.7523 101.552 20.611 100.554 16.8895 99.7265C15.5993 99.4397 14.0517 99.1994 13.4499 99.1926C12.4944 99.1817 12.3319 99.3032 12.1661 100.151C11.6207 102.94 9.49361 104.893 6.45378 105.395C1.88271 106.149 -1.45494 100.653 0.639723 95.8206C2.50631 89.6856 11.4164 89.3773 12.0515 96.1664C12.0515 96.7137 12.9234 96.9867 21.2877 99.0575C23.6808 99.65 30.3584 100.575 32.3129 100.586L33.6622 100.593L34.1669 98.2091C34.4445 96.8982 34.863 95.1751 35.097 94.3799C35.5959 92.6833 38.486 89.0284 40.0293 88.1421C40.607 87.8104 41.0796 87.4151 41.0796 87.2637C41.0796 87.1123 40.6314 86.1872 40.0839 85.2079C39.5363 84.2285 37.8072 80.4171 36.2412 76.738C34.6754 73.0589 33.3705 70.0164 33.3412 69.9771C33.3122 69.9376 32.5892 70.3221 31.7344 70.8315C30.4369 71.6048 29.7615 71.7622 27.6401 71.7859C16.548 72.0154 10.8548 60.9262 12.7739 52.3988C14.9511 35.6956 34.9855 32.9978 39.8805 47.1377C40.6507 49.4239 40.7497 49.5619 41.5492 49.459C43.4923 49.2091 55.5136 44.6523 60.285 42.3569C64.7535 40.2074 64.5368 40.4422 64.5368 37.7522C63.8073 30.9654 66.9389 23.7928 72.277 21.591C72.0993 21.4418 71.7346 20.7636 71.4671 20.0838C70.8909 18.6205 65.8118 10.903 65.4252 10.903C62.3731 13.3969 58.134 13.2446 57.0337 8.72209L56.2906 6.95632L51.104 7.17287C44.4876 7.44919 40.823 7.71095 39.9473 7.9698C39.5666 8.08236 38.8363 8.72459 38.3245 9.39697C37.1912 10.8866 35.2791 11.326 33.8373 10.4283C32.7061 9.72378 31.9302 7.81959 32.1747 6.34763C32.3973 5.007 34.0864 3.1346 35.073 3.1346C37.0442 3.54419 38.0886 4.20968 39.0965 6.06193L44.7061 5.83612C47.7915 5.7119 51.6975 5.4248 53.3863 5.19802L56.4566 4.78574L58.0776 2.75475C60.2778 -0.00185792 61.8612 -0.542666 64.7285 0.482812C68.2592 2.60294 67.8484 6.46496 66.8816 9.48448L68.4712 12.358C69.9096 14.9584 72.3928 18.4058 73.5531 19.5556L74.5062 20.4998C81.8883 17.7927 86.8902 21.853 90.7265 27.5713C91.344 28.555 91.9056 30.6678 92.5515 34.4372C92.782 35.7828 94.7829 36.0717 108.079 36.6787C112.11 36.8629 116.465 37.1662 117.755 37.3529C119.045 37.5396 121.882 37.7865 124.059 37.9017C126.236 38.0168 128.507 38.1992 129.105 38.3069C130.114 38.4886 130.207 38.4301 130.376 37.5031C130.915 34.5466 132.213 32.0267 134.59 29.3241C136.933 26.658 140.902 24.6742 143.893 24.6742H145.441L145.766 23.1735C146.558 19.5247 148.086 13.277 148.23 13.1038C148.317 12.9992 147.88 12.2505 147.26 11.44C141.963 2.86653 153.338 -0.120036 153.196 7.86265C153.166 9.40917 152.99 10.1076 152.39 11.0542C151.968 11.7208 151.325 12.3169 150.962 12.3791C150.057 12.5338 149.156 14.9169 148.085 19.9906C147.01 25.0784 146.999 25.6524 147.962 25.9435C151.592 27.8689 154.328 29.5196 155.604 33.2593C157.773 39.7026 157.179 43.3497 153.179 48.1454C151.415 50.2593 148.114 52.1974 145.815 52.4684C144.896 52.5768 143.998 52.8038 143.819 52.9729C143.216 53.542 142.737 58.7428 142.061 72.0367L141.87 75.7902L142.959 76.2231C145.298 77.1526 146.93 79.7597 146.93 82.566C146.93 83.746 147.04 84.0135 147.589 84.1656C152.703 85.3042 154.974 86.0985 155.927 85.4754C156.867 84.8593 158.237 84.9626 159.512 85.746C160.691 86.4704 160.993 87.1951 161 89.3139C161.007 91.261 160.448 91.9007 158.744 91.9007C156.861 91.9007 155.384 90.8982 155.004 89.3616C154.772 88.4245 154.51 88.1558 153.538 87.8576C151.013 86.9042 148.181 86.1741 146.031 85.637L144.794 87.0808C140.16 91.7716 135.708 89.7905 133.936 85.6817C133.533 84.6789 133.348 84.5618 132.072 84.5024C130.446 84.4266 120.031 85.6133 119.28 85.9599C118.862 86.1532 118.779 86.7146 118.766 89.4192C118.736 95.7791 118.179 98.6485 116.467 101.251C114.345 104.478 110.428 106.965 105.459 108.241C103.931 108.634 103.936 108.608 102.822 120.896C101.816 131.982 101.876 136.228 103.046 136.874C104.724 136.913 109.136 141.358 109.471 143.151L109.983 144.341L111.523 143.81C112.902 143.336 117.114 141.695 125.965 138.186C127.577 137.546 130.066 136.583 131.495 136.046C132.925 135.508 134.247 134.884 134.434 134.659C134.62 134.434 135.063 134.063 135.417 133.835L136.061 133.42L135.04 131.042C133.742 128.02 133.272 125.088 133.731 122.872C134.141 120.89 135.152 118.757 136.306 117.435C146.495 107.9 158.383 114.27 154.407 129.454C153.973 131.309 153.609 131.996 152.097 133.812C151.109 134.997 149.935 136.198 149.487 136.479C148.709 136.968 148.681 137.076 148.865 138.831C148.971 139.843 149.378 142.18 149.769 144.025C150.16 145.87 150.595 148.094 150.736 148.968C151.906 156.213 153.013 159.536 154.428 160.05C156.78 160.905 157.245 161.836 157.231 165.656C157.225 167.582 157.128 167.959 156.464 168.648C156.047 169.082 155.012 169.679 154.165 169.975C152.784 170.459 152.47 170.459 151.113 169.973C150.261 169.668 149.209 168.96 148.705 168.353C147.935 167.426 147.809 167.016 147.809 165.429C147.809 163.986 148.001 163.22 148.686 161.918C149.169 161.001 149.895 160.1 150.299 159.915C151.149 159.526 151.193 159.131 150.609 157.139C150.376 156.341 150.038 154.398 149.858 152.822C149.679 151.246 149.224 148.661 148.848 147.078C148.471 145.496 147.875 142.678 147.522 140.818L146.881 137.435L144.633 137.589C142.815 137.713 142.048 137.593 140.626 136.958C138.224 135.888 137.221 135.895 134.321 137.003C125.844 140.241 122.126 141.703 119.661 142.767C118.129 143.428 115.548 144.464 113.927 145.071L110.978 146.173L111.104 149.347C111.2 151.769 111.113 152.893 110.731 154.094C109.902 156.709 106.498 159.962 102.801 161.673C102.479 161.823 101.846 162.123 101.395 162.342C100.209 162.915 96.5634 162.829 94.7621 162.185C93.9104 161.881 93.1822 161.682 93.1435 161.744C93.1051 161.805 92.63 162.651 92.088 163.622C91.5461 164.593 90.1236 166.976 88.9268 168.918C85.8553 173.903 85.8969 173.726 87.3888 175.47C90.0886 178.625 90.1823 182.337 87.6436 185.561C86.9484 186.444 86.8322 186.8 87.0665 187.327C88.0341 189.5 91.1496 195.567 91.757 196.461C92.471 197.511 93.7565 198.367 94.8843 198.543C95.2067 198.593 95.7039 198.759 95.9891 198.912C100.415 197.885 105.093 194.528 108.959 192.775C114.048 190.47 114.587 190.084 114.819 188.573C115.139 186.483 116.946 184.632 118.665 184.632C119.687 184.632 121.567 186.959 122.017 188.78C122.445 190.511 122.033 191.822 120.768 192.752C119.286 193.84 118.005 194.006 116.769 193.27C116.183 192.92 115.372 192.672 114.969 192.718C108.382 194.653 103.204 197.989 97.2323 201.053L97.3262 202.366C97.4529 204.138 96.5049 206.038 94.8439 207.14C91.9783 208.987 88.0833 207.906 87.9938 203.439V203.439ZM95.3691 201.669C95.3691 200.728 93.8231 199.816 92.6407 199.816C91.7599 199.816 91.3331 200.073 90.5003 201.106C89.2673 202.635 89.1271 204.111 90.0974 205.355C94.8655 207.387 95.5423 204.099 95.3691 201.669ZM120.114 190.828C120.925 189.851 120.979 189.407 120.43 188.216C119.926 187.12 117.625 186.803 116.945 187.736C116.193 188.768 116.055 189.892 116.565 190.829C117.228 192.048 119.101 192.048 120.114 190.827V190.828ZM56.3236 188.698C56.7509 188.078 56.5173 187.104 55.9416 187.104C55.3819 187.104 54.468 188.39 54.7026 188.848C54.9824 189.393 55.9036 189.307 56.3236 188.698ZM83.0248 186.663C93.9014 180.495 82.2024 169.314 75.9761 176.472C74.8349 177.847 74.551 178.449 74.3736 179.875C74.1853 181.386 74.2361 181.683 74.7717 182.205C75.4443 182.861 75.5562 183.58 75.076 184.158C74.6662 184.651 76.0642 186.67 77.2771 187.336C78.5204 188.019 81.0421 187.724 83.0248 186.663ZM23.0982 168.21C25.4836 167.01 28.4157 163.501 29.7342 160.268C30.596 158.156 30.6687 157.706 30.6468 154.618C30.6172 150.371 30.253 149.376 27.591 146.266C25.8053 144.179 25.3127 143.799 23.9915 143.489C22.7418 143.196 22.4434 142.985 22.3668 142.341C22.2368 141.247 21.5147 140.876 19.0262 140.623C17.1194 140.429 16.6558 140.514 14.8379 141.389C10.8818 143.295 7.87322 146.338 6.29584 150.028C5.54108 151.794 5.465 152.307 5.45987 155.678C5.45513 158.847 5.55251 159.626 6.13197 161.042C7.73668 164.966 11.5365 167.859 16.2745 168.766C18.3033 169.154 21.7858 168.87 23.0982 168.21ZM155.066 167.152C156.06 165.766 155.964 163.855 154.842 162.669C153.687 161.449 152.477 161.141 151.422 161.798C150.113 162.614 149.511 163.647 149.351 165.353C149.212 166.845 149.259 166.977 150.192 167.684C151.598 168.749 154.119 168.473 155.066 167.152ZM100.895 160.549C102.771 159.879 105.908 157.7 107.239 156.143C109.646 153.325 110.183 150.615 109.105 146.732C108.29 143.799 106.81 141.572 104.362 139.594C101.015 136.89 97.9018 136.2 95.5753 137.647C89.243 140.545 82.8914 153.019 93.1896 159.254C93.9964 159.171 94.2244 159.293 94.3513 159.877C94.5034 160.578 94.6726 160.653 97.0835 161.095C97.9802 161.259 99.5244 161.038 100.895 160.549ZM146.49 135.422C148.85 134.661 151.506 132.249 152.457 130.003C152.786 129.227 153.21 127.518 153.4 126.204C153.907 121.066 151.196 115.374 146.656 115.503C142.843 115.699 139.196 116.639 137.12 119.139C135.525 121.06 134.821 123.246 134.972 125.814C135.169 129.162 136.236 131.399 139.055 134.375C140.46 135.86 143.714 136.318 146.49 135.422ZM57.3628 120.306C60.2422 119.269 64.6575 116.004 66.1535 113.805C67.7817 111.412 68.4551 109.274 68.4628 106.474C67.7914 101.609 65.9734 95.3043 63.4046 91.5289C57.3462 84.4603 48.4092 85.3828 43.3548 88.5617C43.0741 88.964 42.5013 89.2933 42.0815 89.2933C41.0011 89.2933 38.713 91.5754 37.4531 93.9096C36.1582 96.3083 35.1973 100.53 35.1575 103.995C35.1331 106.119 35.2713 106.882 36.0388 108.857C36.5396 110.146 37.5373 112.12 38.2559 113.245C39.6599 115.442 42.4451 118.248 43.2223 118.248C43.4839 118.248 43.8366 118.56 44.006 118.941C44.1982 119.374 45.1664 119.973 46.5817 120.535C48.5743 121.327 49.2238 121.419 51.9284 121.296C54.0446 121.199 55.7436 120.889 57.3628 120.306ZM83.9716 119.886C86.0838 118.809 86.4425 116.995 84.7516 115.942C84.0133 115.483 83.766 115.477 82.9398 115.898C80.9181 116.928 80.3426 119.243 81.9185 120.007C82.8096 120.438 82.8977 120.433 83.9716 119.886ZM101.024 107.255C108.38 105.601 110.984 104.384 113.923 101.23C116.246 98.7359 116.742 97.3857 117.063 92.6696C117.3 85.5367 115.358 79.7048 111.431 76.6696C105.721 72.5852 100.387 73.8057 95.1379 76.2806C91.3101 78.0987 90.35 78.71 89.0159 80.1786C86.1319 83.3525 84.9482 87.9444 85.6046 93.4108C85.8026 95.0604 86.0771 96.6758 86.2147 97.0006C86.3521 97.3255 86.5986 97.9885 86.7624 98.4741C87.3093 100.095 89.6399 103.582 90.8509 104.592C94.8072 107.177 96.3904 108.244 101.024 107.255ZM6.92039 103.734C9.38797 102.922 10.8787 100.705 10.8787 97.8457C10.0789 93.1164 6.24284 91.6974 3.0073 95.0704C0.809937 97.4841 1.1334 102.065 3.60478 103.532C4.754 104.214 5.35022 104.25 6.92039 103.734ZM73.3376 100.586C75.5123 99.999 78.9825 98.8766 81.0492 98.0913L84.8068 96.6635L84.6009 95.5385C83.5294 89.6801 84.2807 83.9395 86.5509 80.6421C88.1945 78.2547 89.8313 76.919 92.8157 75.5295C94.1954 74.8872 95.3241 74.2121 95.3241 74.0294C95.3241 72.8181 85.8592 49.7451 85.3622 49.7451C85.227 49.7451 84.2134 50.2381 83.1097 50.8406C81.6366 51.6851 76.9539 52.5831 75.8745 51.5344C75.4383 51.0092 74.7991 51.0634 74.7991 51.6257C72.0583 56.2532 71.0765 58.6696 69.5148 62.2805C66.4838 70.3322 61.3771 78.4736 59.5521 86.0846C59.5521 86.2695 59.8455 86.5329 60.2042 86.67C61.5476 87.1834 63.8636 89.3553 64.9788 91.147C66.3255 93.311 68.4459 98.1346 68.9618 100.208C69.1593 101.002 69.335 101.652 69.3524 101.652C69.3699 101.652 71.1629 101.172 73.3376 100.586ZM159.234 89.3165C159.742 88.1735 159.582 87.6891 158.549 87.2392C157.32 86.7038 156.656 86.9874 156.413 88.1512C156.278 88.799 156.376 89.1826 156.765 89.5248C157.567 90.2305 158.877 90.12 159.234 89.3165ZM145.056 82.7304C145.379 76.3973 138.26 75.4532 136.347 79.382C134.214 82.0305 134.23 83.836 136.408 86.4016C138.89 89.0402 144.117 86.6264 145.056 82.7304ZM55.0611 84.1396C58.2343 85.3032 57.8821 85.6282 60.7664 78.8765C64.3347 69.4224 69.0082 60.5337 72.2444 50.981C72.3955 49.9813 72.2942 49.8462 70.446 48.5838C69.2215 47.7472 68.0004 46.5346 67.1871 45.3479C65.3804 42.7115 64.8891 42.676 59.5521 44.7971C51.8909 47.8419 44.1547 50.7402 42.9799 51.0055C42.3461 51.1488 41.6921 51.4402 41.5267 51.6531C41.3615 51.8661 41.2463 53.2125 41.271 54.6453C41.2207 62.3538 38.7041 64.6894 35.5836 67.8158L34.6355 68.7608L35.1805 70.1111C39.8063 81.5678 42.3022 86.6697 43.0866 86.2727C46.8644 84.8453 51.8728 82.9806 55.0611 84.1396ZM125.525 83.081C128.186 82.7714 130.495 82.3948 130.656 82.2441C130.818 82.0934 131.435 81.8649 132.027 81.7364C132.934 81.5398 133.204 81.2577 133.725 79.9612C134.456 78.1428 136.578 76.0339 138.26 75.4531C138.916 75.2268 139.485 75.0183 139.524 74.99C139.868 74.7411 140.637 67.4872 141.058 60.5149C141.21 57.9902 141.42 55.205 141.524 54.3256L141.714 52.7267L139.946 52.2869C138.304 51.928 137.228 50.9114 135.792 50.1123L130.041 57.1511C126.878 61.0224 124.139 64.4073 123.955 64.673C123.77 64.9388 122.45 66.416 121.021 67.9557C118.871 70.2722 116.466 73.4424 114.453 76.6124C115.584 78.748 117.813 80.3246 118.296 83.9047C118.889 83.8282 122.864 83.3906 125.525 83.081ZM118.11 68.6159C122.389 63.8326 129.732 54.7628 132.066 51.3782L133.984 48.5974L132.845 46.8617C132.218 45.9071 131.419 44.1791 131.068 43.0218C130.513 41.1865 130.333 40.9167 129.664 40.9122C129.242 40.9094 128.34 40.6735 127.66 40.388C126.979 40.1025 125.33 39.7875 123.994 39.6879C121.174 39.4776 118.301 39.1369 117.462 38.9133C117.139 38.8274 113.709 38.6165 109.838 38.4447C105.968 38.2729 100.532 38.0231 97.7584 37.8896L92.7157 37.647L92.5731 38.4877C92.4948 38.9501 92.358 39.8523 92.2692 40.4926C92.0152 42.3262 89.6508 45.9804 87.5629 47.766C86.9922 48.2542 86.9936 48.2814 87.6934 50.1501C89.216 54.2167 95.0944 68.2884 96.2447 70.6206C97.4166 72.9957 97.493 73.0757 98.3712 72.8463C103.074 70.9036 107.168 71.2965 110.864 74.0875C111.59 74.6517 112.344 75.1259 112.54 75.1412C114.696 73.7117 116.484 70.4402 118.11 68.6159ZM31.6713 68.4479C39.6091 64.536 42.3413 52.4478 36.8539 44.8562C28.7175 36.2368 17.6087 41.9041 14.557 52.3796C12.8019 60.5233 17.3028 66.0985 22.3044 68.5495C26.1982 70.4292 28.6253 70.4029 31.6713 68.4479ZM147.528 49.7344C148.64 49.3454 150.014 48.531 150.796 47.7972C159.916 39.8561 152.883 28.2016 146.323 27.1461C146.031 27.1461 145.71 26.9873 145.61 26.7931C145.278 26.1455 142.836 26.429 140.398 27.3984C135.054 29.5958 131.682 36.6387 133 42.2235C135.86 49.9909 141.686 51.6897 147.528 49.7344ZM83.3177 48.6184C85.883 47.0874 88.5655 44.3242 89.6501 42.0955C90.6093 40.1242 90.8763 36.6416 90.3454 33.0244C89.8438 29.6068 89.3743 28.6658 86.8875 26.0956C83.1819 21.2019 76.3231 20.9358 72.6412 23.8536C67.8088 27.6597 66.2059 32.4362 66.1648 37.5629C66.1516 40.0546 66.2486 40.5907 66.9895 42.109C68.4398 45.0803 69.6805 46.4216 72.5433 48.1121C76.7015 50.4646 79.857 50.6694 83.3177 48.6184ZM63.5753 10.0033C66.9837 8.26132 65.9741 2.5505 63.6925 1.73383C61.2865 0.953673 58.2928 3.74106 58.3269 6.72939C58.8629 11.0311 61.3032 11.3484 63.5753 10.0033ZM150.553 9.89983C150.822 9.5422 151.073 8.6403 151.111 7.89563C150.874 2.71256 145.529 6.33727 148.001 9.9043C148.626 10.7352 149.927 10.7329 150.553 9.89983ZM36.7731 8.50035C37.7067 7.32697 37.7773 6.3047 36.9845 5.44058C35.2103 3.50709 32.8174 6.31907 34.2057 8.70596C34.826 9.77234 35.8249 9.6923 36.7731 8.50035Z" fill="white"/>
</g>
<defs>
<clipPath id="clip0_11_36">
<rect width="161" height="208" fill="white"/>
</clipPath>
</defs>
</svg>
