<svg width="38" height="29" viewBox="0 0 38 29" fill="none" xmlns="http://www.w3.org/2000/svg">
<path d="M34.4375 0H3.5625C1.59496 0 0 1.62294 0 3.625V25.375C0 27.3771 1.59496 29 3.5625 29H34.4375C36.405 29 38 27.3771 38 25.375V3.625C38 1.62294 36.405 0 34.4375 0ZM34.4375 3.625V6.70663C32.7734 8.08556 30.1203 10.2298 24.4486 14.7488C23.1987 15.7493 20.7228 18.1527 19 18.1247C17.2775 18.153 14.8008 15.7489 13.5514 14.7488C7.88055 10.2304 5.22686 8.08579 3.5625 6.70663V3.625H34.4375ZM3.5625 25.375V11.3582C5.26315 12.7365 7.67489 14.6707 11.3509 17.5997C12.9731 18.899 15.8139 21.7674 19 21.7499C22.1704 21.7674 24.9753 18.9406 26.6485 17.6003C30.3244 14.6714 32.7368 12.7367 34.4375 11.3583V25.375H3.5625Z" fill="black"/>
</svg>
