<svg width="150" height="150" viewBox="0 0 150 150" fill="none" xmlns="http://www.w3.org/2000/svg">
<path d="M150 75C150 116.421 116.421 150 75 150C33.5786 150 0 116.421 0 75C0 33.5786 33.5786 0 75 0C116.421 0 150 33.5786 150 75Z" fill="black"/>
<path d="M21.5871 100.577L13.1439 101.558C11.3029 101.772 9.85919 101.476 8.81271 100.672C7.76776 99.8801 7.14914 98.6567 6.95685 97.0011C6.82917 95.9018 6.93186 94.9369 7.26492 94.1062C7.59951 93.2888 8.13598 92.6493 8.87432 92.1877C8.03505 91.896 7.3589 91.3906 6.84586 90.6716C6.34607 89.9512 6.0331 89.0479 5.90696 87.9619C5.71313 86.2931 6.03332 84.9472 6.86752 83.9241C7.70326 82.9143 9.04161 82.3024 10.8826 82.0886L19.3258 81.1079L19.4966 82.5781L11.1129 83.5518C8.22566 83.8872 6.9274 85.3064 7.21814 87.8096C7.35813 89.0148 7.81755 89.9078 8.59642 90.4885C9.38852 91.0676 10.5196 91.2718 11.9898 91.1011L20.3734 90.1273L20.5418 91.5776L12.1582 92.5513C10.6748 92.7236 9.61987 93.175 8.9933 93.9055C8.36827 94.6492 8.12651 95.6303 8.26804 96.8488C8.40802 98.054 8.86668 98.9404 9.644 99.5078C10.4346 100.074 11.5649 100.271 13.035 100.101L21.4187 99.1268L21.5871 100.577Z" fill="white"/>
<path d="M15.0618 109.24C15.3451 109.829 15.7075 110.32 16.1488 110.714C16.6079 111.115 17.1255 111.391 17.7017 111.543L17.2197 112.663C16.5127 112.485 15.8767 112.148 15.3117 111.65C14.7467 111.152 14.2821 110.525 13.9178 109.768C13.4494 108.795 13.2374 107.832 13.2816 106.878C13.3378 105.919 13.6311 105.053 14.1616 104.28C14.6921 103.506 15.4199 102.897 16.345 102.452C17.2701 102.007 18.1945 101.806 19.1182 101.85C20.0477 101.905 20.8872 102.19 21.6369 102.702C22.3865 103.214 22.9782 103.921 23.4118 104.822C23.8166 105.663 23.9886 106.512 23.928 107.37C23.8731 108.24 23.5987 109.038 23.1047 109.764C22.6165 110.502 21.9396 111.094 21.0741 111.54L15.8134 104.483C15.1602 105.094 14.7616 105.818 14.6178 106.657C14.4917 107.502 14.6397 108.363 15.0618 109.24ZM22.3125 105.351C21.9945 104.69 21.5521 104.17 20.9853 103.792C20.4363 103.42 19.8132 103.217 19.116 103.183C18.4366 103.154 17.7424 103.311 17.0336 103.652C16.8534 103.739 16.7241 103.808 16.6458 103.861L21.1612 109.922C21.8847 109.397 22.3571 108.718 22.5784 107.886C22.8117 107.049 22.7231 106.204 22.3125 105.351Z" fill="white"/>
<path d="M31.1859 115.516C31.7837 116.301 32.1445 117.149 32.2685 118.06C32.4031 118.963 32.2842 119.842 31.9117 120.695C31.5392 121.548 30.9393 122.29 30.1119 122.92C29.2844 123.55 28.4099 123.931 27.4881 124.063C26.5664 124.195 25.6829 124.081 24.8376 123.719C23.9922 123.357 23.2707 122.783 22.673 121.998C22.1398 121.298 21.8077 120.554 21.6767 119.766C21.5536 118.988 21.644 118.215 21.9478 117.448L20.2929 118.708L19.469 117.626L31.2758 108.635L32.136 109.765L27.1078 113.594C27.9154 113.532 28.663 113.667 29.3508 113.998C30.0573 114.331 30.669 114.837 31.1859 115.516ZM23.6148 121.156C24.0591 121.739 24.5956 122.168 25.2243 122.444C25.8636 122.711 26.5335 122.788 27.234 122.673C27.9426 122.569 28.6151 122.275 29.2516 121.791C29.8881 121.306 30.3506 120.736 30.6392 120.08C30.9358 119.436 31.035 118.773 30.9367 118.094C30.849 117.407 30.5831 116.771 30.1388 116.188C29.6864 115.594 29.1406 115.163 28.5013 114.896C27.8807 114.631 27.2161 114.55 26.5075 114.654C25.807 114.769 25.1385 115.068 24.502 115.553C23.8655 116.038 23.399 116.602 23.1023 117.247C22.8138 117.903 22.7093 118.569 22.7889 119.246C22.8872 119.925 23.1625 120.562 23.6148 121.156Z" fill="white"/>
<path d="M43.2108 121.112L47.8808 124.38C49.0933 125.229 49.9919 126.224 50.5764 127.365C51.1685 128.496 51.4155 129.678 51.3173 130.911C51.2268 132.133 50.7916 133.302 50.0118 134.416C49.2321 135.53 48.2797 136.344 47.1546 136.859C46.0372 137.363 44.8423 137.535 43.5697 137.377C42.3048 137.208 41.0661 136.699 39.8535 135.851L35.1836 132.582L43.2108 121.112ZM40.5219 134.756C41.5269 135.459 42.5439 135.878 43.5729 136.012C44.6095 136.136 45.58 135.993 46.4844 135.584C47.3964 135.165 48.1735 134.496 48.8157 133.579C49.4579 132.661 49.816 131.707 49.8902 130.718C49.972 129.717 49.7737 128.757 49.2951 127.836C48.8243 126.904 48.0863 126.087 47.0813 125.383L43.6894 123.009L37.13 132.382L40.5219 134.756Z" fill="white"/>
<path d="M55.1331 141.113C55.7439 141.345 56.3451 141.452 56.9366 141.434C57.5454 141.408 58.1109 141.252 58.6333 140.965L59.0548 142.109C58.4198 142.467 57.7261 142.66 56.9738 142.689C56.2215 142.717 55.4527 142.582 54.6673 142.284C53.6576 141.901 52.8405 141.348 52.216 140.626C51.5962 139.892 51.2125 139.062 51.0648 138.136C50.9171 137.21 51.0253 136.267 51.3896 135.307C51.7539 134.347 52.286 133.565 52.986 132.961C53.6984 132.361 54.5028 131.989 55.3991 131.844C56.2954 131.7 57.2111 131.805 58.146 132.159C59.0186 132.491 59.7283 132.988 60.275 133.652C60.8341 134.321 61.1846 135.088 61.3263 135.955C61.4805 136.826 61.3973 137.722 61.0769 138.641L52.403 137.146C52.3495 138.039 52.5594 138.838 53.0325 139.546C53.5229 140.245 54.2231 140.768 55.1331 141.113ZM57.7131 133.3C57.0275 133.04 56.349 132.968 55.6775 133.084C55.0231 133.192 54.4314 133.474 53.9021 133.929C53.39 134.376 52.9944 134.968 52.7153 135.703C52.6443 135.89 52.5985 136.03 52.5779 136.122L60.0261 137.408C60.1887 136.529 60.064 135.711 59.6518 134.956C59.2444 134.188 58.5982 133.636 57.7131 133.3ZM60.8136 128.851L62.59 129.525L58.6808 130.694L57.3719 130.197L60.8136 128.851Z" fill="white"/>
<path d="M74.2774 135.196L67.9281 144.801L66.4881 144.56L63.625 133.416L65.0848 133.66L67.4947 143.147L72.8966 134.965L74.2774 135.196Z" fill="white"/>
<path d="M81.0284 143.755C81.6816 143.745 82.2798 143.623 82.8229 143.388C83.3791 143.139 83.847 142.785 84.2267 142.326L85.0408 143.233C84.5828 143.801 84.0095 144.236 83.3207 144.54C82.632 144.844 81.8677 145.003 81.0278 145.016C79.9479 145.032 78.9845 144.82 78.1376 144.38C77.2905 143.926 76.6274 143.297 76.1482 142.491C75.6691 141.685 75.4216 140.768 75.4057 139.742C75.3899 138.715 75.5956 137.792 76.023 136.972C76.4637 136.152 77.0739 135.509 77.8535 135.043C78.633 134.578 79.5228 134.338 80.5226 134.322C81.4559 134.308 82.2991 134.508 83.0522 134.923C83.8187 135.338 84.4278 135.922 84.8795 136.675C85.3445 137.428 85.5979 138.291 85.6395 139.264L77.0265 141.077C77.3063 141.926 77.7967 142.592 78.4975 143.074C79.2115 143.543 80.0551 143.77 81.0284 143.755ZM80.5415 135.542C79.8082 135.553 79.151 135.737 78.5697 136.092C78.0016 136.435 77.5557 136.915 77.2318 137.533C76.9211 138.138 76.7719 138.834 76.784 139.62C76.7871 139.82 76.796 139.967 76.8108 140.06L84.2077 138.506C84.0341 137.628 83.6164 136.915 82.9545 136.365C82.2924 135.802 81.488 135.527 80.5415 135.542Z" fill="white"/>
<path d="M92.9715 142.883C92.0444 143.075 91.2723 142.962 90.6551 142.545C90.051 142.125 89.6532 141.452 89.4616 140.525L87.0497 128.851L88.4403 128.564L90.828 140.12C90.9548 140.734 91.1955 141.174 91.5502 141.441C91.9022 141.695 92.3655 141.763 92.94 141.644C93.3057 141.568 93.6069 141.445 93.8438 141.273L94.1805 142.409C93.8054 142.636 93.4024 142.794 92.9715 142.883Z" fill="white"/>
<path d="M102.186 139.795C101.229 140.126 100.291 140.21 99.3745 140.047C98.4533 139.872 97.6394 139.476 96.9327 138.86C96.226 138.243 95.7051 137.45 95.3698 136.479C95.0345 135.509 94.9547 134.563 95.1301 133.642C95.3056 132.721 95.7037 131.913 96.3244 131.219C96.9451 130.525 97.7344 130.013 98.6922 129.682C99.6499 129.351 100.587 129.267 101.504 129.43C102.421 129.593 103.226 129.985 103.92 130.605C104.627 131.222 105.148 132.015 105.483 132.985C105.818 133.956 105.898 134.901 105.723 135.823C105.56 136.739 105.17 137.551 104.554 138.258C103.933 138.952 103.144 139.464 102.186 139.795ZM101.775 138.604C102.481 138.361 103.056 137.985 103.502 137.479C103.956 136.955 104.238 136.343 104.348 135.642C104.459 134.94 104.383 134.212 104.122 133.456C103.861 132.699 103.47 132.08 102.951 131.596C102.431 131.113 101.833 130.811 101.157 130.692C100.49 130.556 99.8028 130.61 99.0971 130.854C98.3914 131.098 97.8115 131.481 97.3576 132.005C96.912 132.512 96.6277 133.118 96.5046 133.823C96.3942 134.524 96.4696 135.253 96.7309 136.009C96.9921 136.765 97.3826 137.385 97.9023 137.869C98.4346 138.348 99.0346 138.655 99.7023 138.791C100.378 138.911 101.069 138.848 101.775 138.604Z" fill="white"/>
<path d="M110.263 123.148C111.111 122.643 111.995 122.38 112.914 122.36C113.826 122.329 114.685 122.547 115.491 123.013C116.297 123.48 116.966 124.16 117.498 125.054C118.037 125.959 118.32 126.876 118.347 127.807C118.374 128.738 118.159 129.603 117.704 130.402C117.253 131.182 116.599 131.829 115.74 132.34C115.006 132.777 114.253 133.024 113.48 133.081C112.712 133.12 111.965 132.96 111.239 132.601L114.238 137.635L113.018 138.362L105.648 125.99L106.816 125.294L107.881 127.081C107.893 126.267 108.101 125.523 108.505 124.847C108.921 124.165 109.507 123.598 110.263 123.148ZM115.009 131.309C115.639 130.934 116.126 130.449 116.471 129.856C116.809 129.251 116.961 128.594 116.927 127.885C116.904 127.169 116.688 126.468 116.278 125.78C115.869 125.093 115.358 124.575 114.746 124.225C114.139 123.857 113.489 123.678 112.796 123.687C112.104 123.697 111.442 123.889 110.812 124.264C110.171 124.646 109.681 125.14 109.343 125.745C109.016 126.343 108.864 127 108.887 127.716C108.915 128.413 109.133 129.106 109.543 129.793C109.952 130.48 110.46 131.008 111.067 131.375C111.686 131.736 112.336 131.916 113.017 131.913C113.704 131.893 114.367 131.691 115.009 131.309Z" fill="white"/>
<path d="M119.605 114.636C120.327 113.964 121.136 113.522 122.03 113.309C122.916 113.087 123.802 113.119 124.687 113.406C125.573 113.693 126.37 114.217 127.078 114.979C127.796 115.75 128.265 116.588 128.487 117.492C128.709 118.397 128.681 119.287 128.404 120.164C128.128 121.022 127.623 121.791 126.891 122.472C126.266 123.053 125.582 123.453 124.838 123.671C124.095 123.871 123.331 123.871 122.545 123.673L126.536 127.964L125.496 128.931L115.69 118.386L116.686 117.46L118.102 118.983C117.943 118.185 117.99 117.413 118.243 116.667C118.506 115.912 118.96 115.236 119.605 114.636ZM125.96 121.618C126.497 121.118 126.872 120.542 127.084 119.89C127.287 119.227 127.298 118.553 127.115 117.867C126.942 117.172 126.583 116.532 126.039 115.946C125.494 115.36 124.886 114.96 124.214 114.747C123.543 114.515 122.87 114.477 122.195 114.631C121.519 114.786 120.913 115.113 120.376 115.612C119.829 116.121 119.454 116.706 119.251 117.369C119.057 118.022 119.047 118.696 119.22 119.391C119.393 120.068 119.752 120.699 120.297 121.284C120.842 121.87 121.45 122.279 122.121 122.511C122.801 122.734 123.474 122.773 124.14 122.627C124.806 122.462 125.413 122.126 125.96 121.618Z" fill="white"/>
<path d="M134.255 110.403C134.63 109.868 134.881 109.311 135.009 108.733C135.133 108.137 135.121 107.55 134.971 106.973L136.183 106.846C136.375 107.549 136.392 108.269 136.234 109.005C136.077 109.741 135.758 110.453 135.276 111.142C134.657 112.027 133.921 112.683 133.068 113.111C132.204 113.532 131.305 113.7 130.371 113.616C129.437 113.532 128.549 113.196 127.708 112.607C126.867 112.019 126.239 111.311 125.825 110.484C125.419 109.646 125.256 108.775 125.335 107.871C125.415 106.966 125.741 106.104 126.315 105.285C126.85 104.52 127.506 103.955 128.284 103.587C129.069 103.209 129.899 103.058 130.774 103.133C131.657 103.198 132.505 103.498 133.317 104.034L129.74 112.076C130.592 112.347 131.419 112.34 132.221 112.055C133.019 111.751 133.697 111.2 134.255 110.403ZM127.314 105.985C126.894 106.585 126.657 107.226 126.605 107.905C126.549 108.566 126.677 109.209 126.989 109.833C127.297 110.44 127.773 110.968 128.418 111.419C128.581 111.534 128.705 111.613 128.79 111.655L131.864 104.75C131.051 104.377 130.228 104.297 129.395 104.511C128.551 104.718 127.857 105.209 127.314 105.985Z" fill="white"/>
<path d="M133.543 89.5121L143.201 93.6824L142.662 94.931L140.899 94.1699C141.339 94.7663 141.594 95.4358 141.666 96.1783C141.725 96.9155 141.588 97.6698 141.255 98.4409C140.711 99.7018 139.931 100.549 138.916 100.982C137.894 101.398 136.704 101.312 135.345 100.725L129.745 98.3072L130.308 97.0036L135.78 99.3662C136.796 99.8049 137.675 99.8869 138.418 99.6124C139.161 99.3378 139.734 98.7353 140.135 97.805C140.574 96.789 140.614 95.8551 140.256 95.0032C139.885 94.1461 139.149 93.4797 138.048 93.004L132.98 90.8158L133.543 89.5121Z" fill="white"/>
<path d="M135.755 85.1201C135.129 84.6531 134.704 84.0637 134.481 83.3518C134.26 82.627 134.247 81.7875 134.44 80.8336L135.793 81.1077L135.706 81.4369C135.486 82.5215 135.647 83.4385 136.189 84.1877C136.731 84.9369 137.603 85.4334 138.805 85.677L144.058 86.7415L143.776 88.1332L133.466 86.0439L133.736 84.711L135.755 85.1201Z" fill="white"/>
<path d="M97 76.5C97 87.8218 87.8218 97 76.5 97C65.1782 97 56 87.8218 56 76.5C56 65.1782 65.1782 56 76.5 56C87.8218 56 97 65.1782 97 76.5Z" fill="white"/>
</svg>
